<?xml version='1.0' encoding='UTF-8'?>
<svg height="66mm" version="1.1" width="66mm" xmlns="http://www.w3.org/2000/svg"><rect height="2mm" width="2mm" x="8mm" y="8mm" /><rect height="2mm" width="2mm" x="10mm" y="8mm" /><rect height="2mm" width="2mm" x="12mm" y="8mm" /><rect height="2mm" width="2mm" x="14mm" y="8mm" /><rect height="2mm" width="2mm" x="16mm" y="8mm" /><rect height="2mm" width="2mm" x="18mm" y="8mm" /><rect height="2mm" width="2mm" x="20mm" y="8mm" /><rect height="2mm" width="2mm" x="24mm" y="8mm" /><rect height="2mm" width="2mm" x="26mm" y="8mm" /><rect height="2mm" width="2mm" x="28mm" y="8mm" /><rect height="2mm" width="2mm" x="30mm" y="8mm" /><rect height="2mm" width="2mm" x="34mm" y="8mm" /><rect height="2mm" width="2mm" x="44mm" y="8mm" /><rect height="2mm" width="2mm" x="46mm" y="8mm" /><rect height="2mm" width="2mm" x="48mm" y="8mm" /><rect height="2mm" width="2mm" x="50mm" y="8mm" /><rect height="2mm" width="2mm" x="52mm" y="8mm" /><rect height="2mm" width="2mm" x="54mm" y="8mm" /><rect height="2mm" width="2mm" x="56mm" y="8mm" /><rect height="2mm" width="2mm" x="8mm" y="10mm" /><rect height="2mm" width="2mm" x="20mm" y="10mm" /><rect height="2mm" width="2mm" x="30mm" y="10mm" /><rect height="2mm" width="2mm" x="32mm" y="10mm" /><rect height="2mm" width="2mm" x="34mm" y="10mm" /><rect height="2mm" width="2mm" x="44mm" y="10mm" /><rect height="2mm" width="2mm" x="56mm" y="10mm" /><rect height="2mm" width="2mm" x="8mm" y="12mm" /><rect height="2mm" width="2mm" x="12mm" y="12mm" /><rect height="2mm" width="2mm" x="14mm" y="12mm" /><rect height="2mm" width="2mm" x="16mm" y="12mm" /><rect height="2mm" width="2mm" x="20mm" y="12mm" /><rect height="2mm" width="2mm" x="26mm" y="12mm" /><rect height="2mm" width="2mm" x="30mm" y="12mm" /><rect height="2mm" width="2mm" x="34mm" y="12mm" /><rect height="2mm" width="2mm" x="36mm" y="12mm" /><rect height="2mm" width="2mm" x="44mm" y="12mm" /><rect height="2mm" width="2mm" x="48mm" y="12mm" /><rect height="2mm" width="2mm" x="50mm" y="12mm" /><rect height="2mm" width="2mm" x="52mm" y="12mm" /><rect height="2mm" width="2mm" x="56mm" y="12mm" /><rect height="2mm" width="2mm" x="8mm" y="14mm" /><rect height="2mm" width="2mm" x="12mm" y="14mm" /><rect height="2mm" width="2mm" x="14mm" y="14mm" /><rect height="2mm" width="2mm" x="16mm" y="14mm" /><rect height="2mm" width="2mm" x="20mm" y="14mm" /><rect height="2mm" width="2mm" x="28mm" y="14mm" /><rect height="2mm" width="2mm" x="30mm" y="14mm" /><rect height="2mm" width="2mm" x="32mm" y="14mm" /><rect height="2mm" width="2mm" x="34mm" y="14mm" /><rect height="2mm" width="2mm" x="38mm" y="14mm" /><rect height="2mm" width="2mm" x="40mm" y="14mm" /><rect height="2mm" width="2mm" x="44mm" y="14mm" /><rect height="2mm" width="2mm" x="48mm" y="14mm" /><rect height="2mm" width="2mm" x="50mm" y="14mm" /><rect height="2mm" width="2mm" x="52mm" y="14mm" /><rect height="2mm" width="2mm" x="56mm" y="14mm" /><rect height="2mm" width="2mm" x="8mm" y="16mm" /><rect height="2mm" width="2mm" x="12mm" y="16mm" /><rect height="2mm" width="2mm" x="14mm" y="16mm" /><rect height="2mm" width="2mm" x="16mm" y="16mm" /><rect height="2mm" width="2mm" x="20mm" y="16mm" /><rect height="2mm" width="2mm" x="28mm" y="16mm" /><rect height="2mm" width="2mm" x="30mm" y="16mm" /><rect height="2mm" width="2mm" x="32mm" y="16mm" /><rect height="2mm" width="2mm" x="34mm" y="16mm" /><rect height="2mm" width="2mm" x="36mm" y="16mm" /><rect height="2mm" width="2mm" x="44mm" y="16mm" /><rect height="2mm" width="2mm" x="48mm" y="16mm" /><rect height="2mm" width="2mm" x="50mm" y="16mm" /><rect height="2mm" width="2mm" x="52mm" y="16mm" /><rect height="2mm" width="2mm" x="56mm" y="16mm" /><rect height="2mm" width="2mm" x="8mm" y="18mm" /><rect height="2mm" width="2mm" x="20mm" y="18mm" /><rect height="2mm" width="2mm" x="26mm" y="18mm" /><rect height="2mm" width="2mm" x="30mm" y="18mm" /><rect height="2mm" width="2mm" x="32mm" y="18mm" /><rect height="2mm" width="2mm" x="34mm" y="18mm" /><rect height="2mm" width="2mm" x="36mm" y="18mm" /><rect height="2mm" width="2mm" x="44mm" y="18mm" /><rect height="2mm" width="2mm" x="56mm" y="18mm" /><rect height="2mm" width="2mm" x="8mm" y="20mm" /><rect height="2mm" width="2mm" x="10mm" y="20mm" /><rect height="2mm" width="2mm" x="12mm" y="20mm" /><rect height="2mm" width="2mm" x="14mm" y="20mm" /><rect height="2mm" width="2mm" x="16mm" y="20mm" /><rect height="2mm" width="2mm" x="18mm" y="20mm" /><rect height="2mm" width="2mm" x="20mm" y="20mm" /><rect height="2mm" width="2mm" x="24mm" y="20mm" /><rect height="2mm" width="2mm" x="28mm" y="20mm" /><rect height="2mm" width="2mm" x="32mm" y="20mm" /><rect height="2mm" width="2mm" x="36mm" y="20mm" /><rect height="2mm" width="2mm" x="40mm" y="20mm" /><rect height="2mm" width="2mm" x="44mm" y="20mm" /><rect height="2mm" width="2mm" x="46mm" y="20mm" /><rect height="2mm" width="2mm" x="48mm" y="20mm" /><rect height="2mm" width="2mm" x="50mm" y="20mm" /><rect height="2mm" width="2mm" x="52mm" y="20mm" /><rect height="2mm" width="2mm" x="54mm" y="20mm" /><rect height="2mm" width="2mm" x="56mm" y="20mm" /><rect height="2mm" width="2mm" x="24mm" y="22mm" /><rect height="2mm" width="2mm" x="26mm" y="22mm" /><rect height="2mm" width="2mm" x="30mm" y="22mm" /><rect height="2mm" width="2mm" x="32mm" y="22mm" /><rect height="2mm" width="2mm" x="34mm" y="22mm" /><rect height="2mm" width="2mm" x="36mm" y="22mm" /><rect height="2mm" width="2mm" x="38mm" y="22mm" /><rect height="2mm" width="2mm" x="40mm" y="22mm" /><rect height="2mm" width="2mm" x="8mm" y="24mm" /><rect height="2mm" width="2mm" x="10mm" y="24mm" /><rect height="2mm" width="2mm" x="14mm" y="24mm" /><rect height="2mm" width="2mm" x="16mm" y="24mm" /><rect height="2mm" width="2mm" x="20mm" y="24mm" /><rect height="2mm" width="2mm" x="26mm" y="24mm" /><rect height="2mm" width="2mm" x="36mm" y="24mm" /><rect height="2mm" width="2mm" x="40mm" y="24mm" /><rect height="2mm" width="2mm" x="44mm" y="24mm" /><rect height="2mm" width="2mm" x="56mm" y="24mm" /><rect height="2mm" width="2mm" x="12mm" y="26mm" /><rect height="2mm" width="2mm" x="18mm" y="26mm" /><rect height="2mm" width="2mm" x="24mm" y="26mm" /><rect height="2mm" width="2mm" x="28mm" y="26mm" /><rect height="2mm" width="2mm" x="30mm" y="26mm" /><rect height="2mm" width="2mm" x="34mm" y="26mm" /><rect height="2mm" width="2mm" x="36mm" y="26mm" /><rect height="2mm" width="2mm" x="38mm" y="26mm" /><rect height="2mm" width="2mm" x="42mm" y="26mm" /><rect height="2mm" width="2mm" x="46mm" y="26mm" /><rect height="2mm" width="2mm" x="48mm" y="26mm" /><rect height="2mm" width="2mm" x="50mm" y="26mm" /><rect height="2mm" width="2mm" x="52mm" y="26mm" /><rect height="2mm" width="2mm" x="54mm" y="26mm" /><rect height="2mm" width="2mm" x="14mm" y="28mm" /><rect height="2mm" width="2mm" x="16mm" y="28mm" /><rect height="2mm" width="2mm" x="20mm" y="28mm" /><rect height="2mm" width="2mm" x="22mm" y="28mm" /><rect height="2mm" width="2mm" x="26mm" y="28mm" /><rect height="2mm" width="2mm" x="30mm" y="28mm" /><rect height="2mm" width="2mm" x="38mm" y="28mm" /><rect height="2mm" width="2mm" x="42mm" y="28mm" /><rect height="2mm" width="2mm" x="44mm" y="28mm" /><rect height="2mm" width="2mm" x="46mm" y="28mm" /><rect height="2mm" width="2mm" x="48mm" y="28mm" /><rect height="2mm" width="2mm" x="50mm" y="28mm" /><rect height="2mm" width="2mm" x="56mm" y="28mm" /><rect height="2mm" width="2mm" x="8mm" y="30mm" /><rect height="2mm" width="2mm" x="16mm" y="30mm" /><rect height="2mm" width="2mm" x="24mm" y="30mm" /><rect height="2mm" width="2mm" x="30mm" y="30mm" /><rect height="2mm" width="2mm" x="32mm" y="30mm" /><rect height="2mm" width="2mm" x="38mm" y="30mm" /><rect height="2mm" width="2mm" x="42mm" y="30mm" /><rect height="2mm" width="2mm" x="50mm" y="30mm" /><rect height="2mm" width="2mm" x="52mm" y="30mm" /><rect height="2mm" width="2mm" x="54mm" y="30mm" /><rect height="2mm" width="2mm" x="56mm" y="30mm" /><rect height="2mm" width="2mm" x="8mm" y="32mm" /><rect height="2mm" width="2mm" x="10mm" y="32mm" /><rect height="2mm" width="2mm" x="12mm" y="32mm" /><rect height="2mm" width="2mm" x="14mm" y="32mm" /><rect height="2mm" width="2mm" x="20mm" y="32mm" /><rect height="2mm" width="2mm" x="22mm" y="32mm" /><rect height="2mm" width="2mm" x="26mm" y="32mm" /><rect height="2mm" width="2mm" x="28mm" y="32mm" /><rect height="2mm" width="2mm" x="30mm" y="32mm" /><rect height="2mm" width="2mm" x="32mm" y="32mm" /><rect height="2mm" width="2mm" x="40mm" y="32mm" /><rect height="2mm" width="2mm" x="42mm" y="32mm" /><rect height="2mm" width="2mm" x="44mm" y="32mm" /><rect height="2mm" width="2mm" x="56mm" y="32mm" /><rect height="2mm" width="2mm" x="8mm" y="34mm" /><rect height="2mm" width="2mm" x="10mm" y="34mm" /><rect height="2mm" width="2mm" x="12mm" y="34mm" /><rect height="2mm" width="2mm" x="24mm" y="34mm" /><rect height="2mm" width="2mm" x="26mm" y="34mm" /><rect height="2mm" width="2mm" x="28mm" y="34mm" /><rect height="2mm" width="2mm" x="30mm" y="34mm" /><rect height="2mm" width="2mm" x="34mm" y="34mm" /><rect height="2mm" width="2mm" x="38mm" y="34mm" /><rect height="2mm" width="2mm" x="40mm" y="34mm" /><rect height="2mm" width="2mm" x="48mm" y="34mm" /><rect height="2mm" width="2mm" x="54mm" y="34mm" /><rect height="2mm" width="2mm" x="8mm" y="36mm" /><rect height="2mm" width="2mm" x="10mm" y="36mm" /><rect height="2mm" width="2mm" x="16mm" y="36mm" /><rect height="2mm" width="2mm" x="18mm" y="36mm" /><rect height="2mm" width="2mm" x="20mm" y="36mm" /><rect height="2mm" width="2mm" x="22mm" y="36mm" /><rect height="2mm" width="2mm" x="26mm" y="36mm" /><rect height="2mm" width="2mm" x="32mm" y="36mm" /><rect height="2mm" width="2mm" x="34mm" y="36mm" /><rect height="2mm" width="2mm" x="38mm" y="36mm" /><rect height="2mm" width="2mm" x="42mm" y="36mm" /><rect height="2mm" width="2mm" x="48mm" y="36mm" /><rect height="2mm" width="2mm" x="50mm" y="36mm" /><rect height="2mm" width="2mm" x="52mm" y="36mm" /><rect height="2mm" width="2mm" x="54mm" y="36mm" /><rect height="2mm" width="2mm" x="56mm" y="36mm" /><rect height="2mm" width="2mm" x="8mm" y="38mm" /><rect height="2mm" width="2mm" x="12mm" y="38mm" /><rect height="2mm" width="2mm" x="16mm" y="38mm" /><rect height="2mm" width="2mm" x="22mm" y="38mm" /><rect height="2mm" width="2mm" x="26mm" y="38mm" /><rect height="2mm" width="2mm" x="28mm" y="38mm" /><rect height="2mm" width="2mm" x="30mm" y="38mm" /><rect height="2mm" width="2mm" x="36mm" y="38mm" /><rect height="2mm" width="2mm" x="38mm" y="38mm" /><rect height="2mm" width="2mm" x="46mm" y="38mm" /><rect height="2mm" width="2mm" x="50mm" y="38mm" /><rect height="2mm" width="2mm" x="52mm" y="38mm" /><rect height="2mm" width="2mm" x="56mm" y="38mm" /><rect height="2mm" width="2mm" x="8mm" y="40mm" /><rect height="2mm" width="2mm" x="14mm" y="40mm" /><rect height="2mm" width="2mm" x="16mm" y="40mm" /><rect height="2mm" width="2mm" x="20mm" y="40mm" /><rect height="2mm" width="2mm" x="22mm" y="40mm" /><rect height="2mm" width="2mm" x="24mm" y="40mm" /><rect height="2mm" width="2mm" x="26mm" y="40mm" /><rect height="2mm" width="2mm" x="28mm" y="40mm" /><rect height="2mm" width="2mm" x="32mm" y="40mm" /><rect height="2mm" width="2mm" x="34mm" y="40mm" /><rect height="2mm" width="2mm" x="36mm" y="40mm" /><rect height="2mm" width="2mm" x="40mm" y="40mm" /><rect height="2mm" width="2mm" x="42mm" y="40mm" /><rect height="2mm" width="2mm" x="44mm" y="40mm" /><rect height="2mm" width="2mm" x="46mm" y="40mm" /><rect height="2mm" width="2mm" x="48mm" y="40mm" /><rect height="2mm" width="2mm" x="52mm" y="40mm" /><rect height="2mm" width="2mm" x="54mm" y="40mm" /><rect height="2mm" width="2mm" x="24mm" y="42mm" /><rect height="2mm" width="2mm" x="26mm" y="42mm" /><rect height="2mm" width="2mm" x="32mm" y="42mm" /><rect height="2mm" width="2mm" x="34mm" y="42mm" /><rect height="2mm" width="2mm" x="40mm" y="42mm" /><rect height="2mm" width="2mm" x="48mm" y="42mm" /><rect height="2mm" width="2mm" x="52mm" y="42mm" /><rect height="2mm" width="2mm" x="54mm" y="42mm" /><rect height="2mm" width="2mm" x="8mm" y="44mm" /><rect height="2mm" width="2mm" x="10mm" y="44mm" /><rect height="2mm" width="2mm" x="12mm" y="44mm" /><rect height="2mm" width="2mm" x="14mm" y="44mm" /><rect height="2mm" width="2mm" x="16mm" y="44mm" /><rect height="2mm" width="2mm" x="18mm" y="44mm" /><rect height="2mm" width="2mm" x="20mm" y="44mm" /><rect height="2mm" width="2mm" x="28mm" y="44mm" /><rect height="2mm" width="2mm" x="30mm" y="44mm" /><rect height="2mm" width="2mm" x="40mm" y="44mm" /><rect height="2mm" width="2mm" x="44mm" y="44mm" /><rect height="2mm" width="2mm" x="48mm" y="44mm" /><rect height="2mm" width="2mm" x="56mm" y="44mm" /><rect height="2mm" width="2mm" x="8mm" y="46mm" /><rect height="2mm" width="2mm" x="20mm" y="46mm" /><rect height="2mm" width="2mm" x="26mm" y="46mm" /><rect height="2mm" width="2mm" x="34mm" y="46mm" /><rect height="2mm" width="2mm" x="36mm" y="46mm" /><rect height="2mm" width="2mm" x="38mm" y="46mm" /><rect height="2mm" width="2mm" x="40mm" y="46mm" /><rect height="2mm" width="2mm" x="48mm" y="46mm" /><rect height="2mm" width="2mm" x="56mm" y="46mm" /><rect height="2mm" width="2mm" x="8mm" y="48mm" /><rect height="2mm" width="2mm" x="12mm" y="48mm" /><rect height="2mm" width="2mm" x="14mm" y="48mm" /><rect height="2mm" width="2mm" x="16mm" y="48mm" /><rect height="2mm" width="2mm" x="20mm" y="48mm" /><rect height="2mm" width="2mm" x="24mm" y="48mm" /><rect height="2mm" width="2mm" x="26mm" y="48mm" /><rect height="2mm" width="2mm" x="36mm" y="48mm" /><rect height="2mm" width="2mm" x="38mm" y="48mm" /><rect height="2mm" width="2mm" x="40mm" y="48mm" /><rect height="2mm" width="2mm" x="42mm" y="48mm" /><rect height="2mm" width="2mm" x="44mm" y="48mm" /><rect height="2mm" width="2mm" x="46mm" y="48mm" /><rect height="2mm" width="2mm" x="48mm" y="48mm" /><rect height="2mm" width="2mm" x="54mm" y="48mm" /><rect height="2mm" width="2mm" x="8mm" y="50mm" /><rect height="2mm" width="2mm" x="12mm" y="50mm" /><rect height="2mm" width="2mm" x="14mm" y="50mm" /><rect height="2mm" width="2mm" x="16mm" y="50mm" /><rect height="2mm" width="2mm" x="20mm" y="50mm" /><rect height="2mm" width="2mm" x="24mm" y="50mm" /><rect height="2mm" width="2mm" x="30mm" y="50mm" /><rect height="2mm" width="2mm" x="36mm" y="50mm" /><rect height="2mm" width="2mm" x="38mm" y="50mm" /><rect height="2mm" width="2mm" x="42mm" y="50mm" /><rect height="2mm" width="2mm" x="44mm" y="50mm" /><rect height="2mm" width="2mm" x="54mm" y="50mm" /><rect height="2mm" width="2mm" x="56mm" y="50mm" /><rect height="2mm" width="2mm" x="8mm" y="52mm" /><rect height="2mm" width="2mm" x="12mm" y="52mm" /><rect height="2mm" width="2mm" x="14mm" y="52mm" /><rect height="2mm" width="2mm" x="16mm" y="52mm" /><rect height="2mm" width="2mm" x="20mm" y="52mm" /><rect height="2mm" width="2mm" x="28mm" y="52mm" /><rect height="2mm" width="2mm" x="30mm" y="52mm" /><rect height="2mm" width="2mm" x="32mm" y="52mm" /><rect height="2mm" width="2mm" x="38mm" y="52mm" /><rect height="2mm" width="2mm" x="42mm" y="52mm" /><rect height="2mm" width="2mm" x="48mm" y="52mm" /><rect height="2mm" width="2mm" x="50mm" y="52mm" /><rect height="2mm" width="2mm" x="52mm" y="52mm" /><rect height="2mm" width="2mm" x="54mm" y="52mm" /><rect height="2mm" width="2mm" x="56mm" y="52mm" /><rect height="2mm" width="2mm" x="8mm" y="54mm" /><rect height="2mm" width="2mm" x="20mm" y="54mm" /><rect height="2mm" width="2mm" x="24mm" y="54mm" /><rect height="2mm" width="2mm" x="30mm" y="54mm" /><rect height="2mm" width="2mm" x="36mm" y="54mm" /><rect height="2mm" width="2mm" x="44mm" y="54mm" /><rect height="2mm" width="2mm" x="46mm" y="54mm" /><rect height="2mm" width="2mm" x="48mm" y="54mm" /><rect height="2mm" width="2mm" x="52mm" y="54mm" /><rect height="2mm" width="2mm" x="54mm" y="54mm" /><rect height="2mm" width="2mm" x="56mm" y="54mm" /><rect height="2mm" width="2mm" x="8mm" y="56mm" /><rect height="2mm" width="2mm" x="10mm" y="56mm" /><rect height="2mm" width="2mm" x="12mm" y="56mm" /><rect height="2mm" width="2mm" x="14mm" y="56mm" /><rect height="2mm" width="2mm" x="16mm" y="56mm" /><rect height="2mm" width="2mm" x="18mm" y="56mm" /><rect height="2mm" width="2mm" x="20mm" y="56mm" /><rect height="2mm" width="2mm" x="24mm" y="56mm" /><rect height="2mm" width="2mm" x="30mm" y="56mm" /><rect height="2mm" width="2mm" x="32mm" y="56mm" /><rect height="2mm" width="2mm" x="40mm" y="56mm" /><rect height="2mm" width="2mm" x="44mm" y="56mm" /><rect height="2mm" width="2mm" x="50mm" y="56mm" /><rect height="2mm" width="2mm" x="56mm" y="56mm" /></svg>